<svg width="943" height="238" viewBox="0 0 943 238" fill="none" xmlns="http://www.w3.org/2000/svg">
<g clip-path="url(#clip0_120_466)">
<path d="M35.9049 0.0532359L78.8524 110.944L125.259 0L159.638 0.834029L204.129 110.944L248.602 0.0532359H282.574L223.678 143.737C223.075 144.518 222.206 144.447 221.354 144.553C217.505 144.997 185.006 145.21 183.427 144.163L142.076 41.4353L99.5545 143.737L59.3211 144.127L0 0.0532359H35.9049Z" fill="#1C3C6D"></path>
<path d="M515.583 0.0532227H626.42C654.413 0.0532227 681.022 27.6472 683.044 55.0637C685.297 85.4791 684.144 118.592 655.158 135.752C649.109 139.336 634.828 144.5 627.998 144.5H515.601L514.43 143.329V1.22441L515.601 0.0532227H515.583ZM547.177 117.971H618.596C652.071 117.971 653.189 83.0835 650.971 58.2401C649.712 44.2035 636.62 27.381 621.719 27.381H547.177V117.971Z" fill="#1C3C6D"></path>
<path d="M281.793 144.5L357.896 0.834029L396.178 0L473.043 144.5H436.748L377.8 30.5219L318.478 144.5H281.793Z" fill="#1C3C6D"></path>
<path d="M852.386 0.0532227V117.971H942.947C943.16 118.539 942.166 118.911 942.166 119.142V142.566C942.166 142.796 943.248 143.666 942.947 144.535H820.384V0.0532227H852.386Z" fill="#1C3C6D"></path>
<path d="M763.405 0.0532227H731.402V144.5H763.405V0.0532227Z" fill="#1C3C6D"></path>
<path d="M70.6035 193.087H87.119L109.382 237.13H97.6031L91.8555 225.454H65.8493L60.1017 237.13H48.4113L70.5857 193.087H70.6035ZM88.5737 218.8L78.9056 199.226L69.2375 218.8H88.5914H88.5737Z" fill="#BE2026" stroke="#BE2026"></path>
<path d="M170.264 193.087H181.671V237.13H170.264V193.087Z" fill="#BE2026" stroke="#BE2026"></path>
<path d="M309.999 226.678C309.999 226.235 309.999 226.182 310.088 226.004L321.405 225.064V225.507C321.405 229.677 323.694 231.097 330.435 231.097H341.575C348.245 231.097 350.516 229.677 350.516 225.436V224.389C350.516 220.982 348.778 219.971 341.664 219.296L325.876 217.735C314.469 216.617 310.354 213.937 310.354 207.478V203.627C310.354 195.979 315.835 192.448 327.508 192.448H344.396C356.175 192.448 361.55 195.997 361.55 203.503V204.177L350.144 205.1V204.674C350.144 200.575 347.855 199.138 341.203 199.138H330.896C324.137 199.138 321.76 200.575 321.76 204.798V205.544C321.76 209.022 323.321 209.891 330.701 210.637L346.489 212.198C357.984 213.316 361.923 215.978 361.923 222.508V226.607C361.923 234.185 356.53 237.734 344.768 237.734H327.242C315.463 237.734 309.999 234.185 309.999 226.678Z" fill="#1C3C6D"></path>
<path d="M441.059 199.794H420.605V193.087H472.99V199.794H452.448V237.13H441.041V199.794H441.059Z" fill="#1C3C6D"></path>
<path d="M567.294 237.734H551.222C539.443 237.734 533.979 234.185 533.979 226.607V193.069H545.385V225.436C545.385 229.66 547.674 231.097 554.415 231.097H564.083C570.753 231.097 573.024 229.677 573.024 225.436V193.069H584.43V226.607C584.43 234.185 579.037 237.734 567.276 237.734H567.294Z" fill="#1C3C6D"></path>
<path d="M700.447 204.266V226.004C700.447 233.581 694.965 237.13 683.293 237.13H650.705V193.087H683.293C694.983 193.087 700.447 196.636 700.447 204.266ZM680.011 199.794H662.129V230.476H680.011C686.77 230.476 689.04 229.039 689.04 224.815V205.437C689.04 201.214 686.752 199.777 680.011 199.777V199.794Z" fill="#1C3C6D"></path>
<path d="M765.888 193.087H777.295V237.13H765.888V193.087Z" fill="#1C3C6D"></path>
<path d="M894.589 203.645V226.625C894.589 234.202 889.196 237.751 877.435 237.751H860.085C848.306 237.751 842.842 234.202 842.842 226.625V203.645C842.842 195.997 848.324 192.465 860.085 192.465H877.435C889.214 192.465 894.589 196.015 894.589 203.645ZM874.224 199.173H863.278C856.52 199.173 854.249 200.611 854.249 204.834V225.454C854.249 229.677 856.537 231.115 863.278 231.115H874.224C880.982 231.115 883.164 229.695 883.164 225.454V204.834C883.164 200.611 880.982 199.173 874.224 199.173Z" fill="#1C3C6D"></path>
</g>
<defs>
<clipPath id="clip0_120_466">
<rect width="943" height="238" fill="white"></rect>
</clipPath>
</defs>
</svg>